<?xml version="1.0" encoding="UTF-8"?>
<svg id="Layer_1" data-name="Layer 1" xmlns="http://www.w3.org/2000/svg" viewBox="0 0 26.19 25.47">
  <defs>
    <style>
      .cls-1 {
        fill: #f3fafb;
      }

      .cls-2 {
        fill: #f7fcfe;
      }

      .cls-3 {
        fill: #96c9ec;
      }

      .cls-4 {
        fill: #9ddbef;
      }

      .cls-5 {
        fill: #c0dff5;
      }

      .cls-6 {
        fill: #467ca5;
      }

      .cls-7 {
        fill: #63a6ce;
      }

      .cls-8 {
        fill: #2a7ab7;
      }

      .cls-9 {
        fill: #3d3f40;
      }

      .cls-10 {
        fill: #60c9e1;
      }

      .cls-11 {
        fill: #5f9ed5;
      }
    </style>
  </defs>
  <path class="cls-9" d="M23.84,21.94c.08-.09,.15-.18,.23-.27,1.77-1.9,2.37-4.21,2.04-6.7-.51-3.76-1.95-7.35-2.22-11.17-.33-1.77-1.75-2.34-3.2-2.66C16.64,.27,12.54-.24,8.4,.11c-2.02,.17-4.13,.42-5.61,2.14-1.4,.81-1.99,2.13-2.24,3.65-.4,2.45,0,4.93-.2,7.39C-.02,15.11-.07,16.95,.07,18.8c.21,2.78,1.59,4.71,4.27,5.66,1.07,.38,2.15,.66,3.28,.72,3.57,.63,7.07,.16,10.54-.69,2.04-.5,4.09-1.07,5.7-2.56l-.02,.02Z"/>
  <path class="cls-6" d="M23.89,3.8c.26,3.82,1.71,7.41,2.22,11.17,.34,2.49-.26,4.8-2.04,6.7-.08,.09-.15,.18-.23,.27,0,0,.02-.02,.02-.02-.69-.06-1.62,.72-1.96-.56,.13-.34,.26-.68,.39-1.02,1.29-2.39,1.68-4.92,1.09-7.56-.39-1.75-1.03-3.46-1.3-5.23-.24-1.54-.54-2.99-1.53-4.23,1.34-1.35,2.3-.15,3.35,.49Z"/>
  <path class="cls-8" d="M23.89,3.8c-1.04-.65-2.01-1.84-3.34-.5-2.46-1.18-5.1-1.5-7.77-1.34-2.33,.14-4.65,.45-6.91,1.1-.75-1.32-2-.73-3.08-.82C4.27,.53,6.38,.29,8.4,.11c4.14-.36,8.25,.15,12.29,1.03,1.45,.31,2.87,.89,3.2,2.66Z"/>
  <path class="cls-4" d="M2.79,2.25c1.07,.09,2.33-.5,3.08,.82-2.07,1.84-3.05,4.23-3.61,6.89-.6,2.88-.42,5.7,.41,8.5-.22-.03-.44-.05-.66-.08l-.09-.48c-.18-.9-.37-1.81-.55-2.71-.15-.74-.29-1.48-1.04-1.9,.21-2.46-.2-4.93,.2-7.39,.25-1.52,.84-2.83,2.24-3.65Z"/>
  <path class="cls-5" d="M.34,13.28c.75,.41,.89,1.15,1.04,1.9,.18,.9,.36,1.81,.55,2.71-1.6,0-1.14,1.12-.88,1.89,.71,2.13,2.41,3.27,4.42,3.97,.5,.17,1.35,.78,1.63,.02,.2-.54-.8-.65-1.26-.96-.33-.22-.74-.34-1.07-.56-1.4-.94-2.6-2.04-2.75-3.87,.22,.03,.44,.05,.66,.08,.04,.08,.06,.16,.07,.25,0,.57,.18,1,.82,1.07,.09,.09,.18,.18,.27,.28,.73,1.5,2.9,2.88,4.32,2.76,.81,.15,1.63,.29,2.44,.44,.8,.57,1.71,.22,2.56,.29,.51,.04,.91,.07,.64,.74-.16,.02-.33,.05-.49,.07-.3-.24-.46-.08-.59,.19-1.67,.47-3.4,.42-5.09,.64-1.13-.06-2.22-.34-3.28-.72C1.66,23.51,.28,21.58,.07,18.8c-.14-1.84-.09-3.69,.27-5.51Z"/>
  <path class="cls-7" d="M7.62,25.18c1.7-.22,3.43-.17,5.09-.64,.24,.06,.43,0,.59-.19,.16-.02,.33-.05,.49-.07,2.82-.66,5.35-2.1,8.1-2.92,.34,1.28,1.27,.5,1.96,.56-1.61,1.5-3.66,2.06-5.7,2.56-3.46,.85-6.97,1.32-10.54,.69Z"/>
  <path class="cls-10" d="M3.89,23.48c.09,.08,.18,.15,.27,.23-.09-.08-.18-.15-.27-.23Z"/>
  <path class="cls-11" d="M2.75,18.7c-.01-.09-.04-.17-.07-.25-.83-2.8-1.01-5.62-.41-8.5,.55-2.65,1.54-5.04,3.61-6.89,2.26-.65,4.58-.96,6.91-1.1,2.67-.16,5.3,.15,7.77,1.34,.98,1.24,1.29,2.69,1.53,4.23,.28,1.77,.92,3.47,1.3,5.23,.58,2.64,.2,5.17-1.09,7.56-1.39,.01-2.44,.95-3.69,1.34-2.62,.82-5.3,1.23-8,1.58-.81-.15-1.63-.29-2.44-.44-1.44-.92-2.88-1.84-4.32-2.76-.09-.09-.18-.18-.27-.28-.07-.51-.4-.83-.82-1.07Z"/>
  <path class="cls-3" d="M10.59,23.25c2.7-.35,5.38-.76,8-1.58,1.26-.39,2.31-1.33,3.69-1.34-.13,.34-.26,.68-.39,1.02-2.76,.82-5.29,2.26-8.1,2.92,.27-.67-.13-.7-.64-.74-.86-.07-1.76,.28-2.56-.29Z"/>
  <path class="cls-1" d="M2.01,18.37c.15,1.84,1.35,2.93,2.75,3.87,.33,.22,.74,.34,1.07,.56,.46,.31,1.46,.41,1.26,.96-.28,.76-1.14,.15-1.63-.02-2.01-.69-3.71-1.84-4.42-3.97-.26-.77-.72-1.88,.88-1.89,.03,.16,.06,.32,.09,.48Z"/>
  <path class="cls-4" d="M3.83,20.05c1.44,.92,2.88,1.84,4.32,2.76-1.43,.12-3.59-1.26-4.32-2.76Z"/>
  <path class="cls-4" d="M2.75,18.7c.42,.24,.75,.56,.82,1.07-.64-.08-.82-.5-.82-1.07Z"/>
  <path class="cls-4" d="M13.3,24.34c-.15,.19-.35,.26-.59,.19,.13-.27,.29-.44,.59-.19Z"/>
  <path class="cls-8" d="M20.77,14.55c-.22,1.41-.41,1.12-2.07,1.16-.45,.01-.9,0-1.35,0-3,.03-2.66-.36-2.69,2.65,0,.54,0,1.08-.02,1.62-.03,.46-.16,.92-.67,1.07-.5,.15-.99,.1-1.39-.29-2.4-2.3-4.81-4.58-7.19-6.9-1.07-1.04-1.06-2.44,.09-3.41,2.27-1.92,4.27-4.12,6.41-6.17,.26-.25,.52-.51,.82-.69,1.09-.65,1.83-.27,1.92,1,.05,.72,.07,1.45,0,2.16-.13,1.33-.5,1.18,1.09,2.12,4.13,2.44,5.06,4.13,5.04,5.68m-.22,.08c-8.4-.53-4.9-5.69-5.19-5.47-.73,.56-1.41-.51-1.44-1.43-.03-.72,.02-1.44-.04-2.16-.04-.5,.29-1.21-.32-1.46-.51-.2-.84,.42-1.18,.75-2.15,2.05-4.26,4.14-6.43,6.16-.9,.84-.93,1.49-.02,2.34,2.01,1.87,3.95,3.81,5.96,5.68,.57,.53,1.07,1.66,1.83,1.32,.74-.32,.31-1.48,.32-2.26,.03-3.03,.01-3.03,3.05-3.03,.45,0,.9,0,1.35,0,1.61-.02,1.9-.31,1.91-1.88"/>
  <path class="cls-2" d="M20.34,14.21c0,1.17-.31,.86-1.91,.88-.45,0-.9,0-1.35,0-3.04,0-3.02,0-3.05,3.03,0,.78,.42,1.93-.32,2.26-.76,.33-1.27-.8-1.83-1.32-2.01-1.87-3.95-3.81-5.96-5.68-.91-.84-.88-1.5,.02-2.34,2.17-2.02,4.28-4.12,6.43-6.16,.34-.33,.67-.95,1.18-.75,.61,.24,.29,.95,.32,1.46,.06,.72,0,1.44,.04,2.16,.03,.92,.63,.99,1.44,1.43,4.83,2.62,4.99,5.05,4.99,5.05"/>
</svg>