<?xml version="1.0" encoding="UTF-8"?>
<svg id="visual" xmlns="http://www.w3.org/2000/svg" viewBox="0 0 846 1470">
  <defs>
    <style>
      .cls-1 {
        fill: #040c1e;
      }

      .cls-2 {
        fill: #032135;
      }

      .cls-3 {
        fill: #051d31;
      }

      .cls-4 {
        fill: #061123;
      }

      .cls-5 {
        fill: #06192c;
      }

      .cls-6 {
        fill: #071527;
      }
    </style>
  </defs>
  <path class="cls-2" d="M629,1470l1.5-22.3c1.5-22.4,4.5-67-6-111.5s-34.5-88.9-51-133.4-25.5-89.1-25.5-133.8,9-89.3,10.5-133.8-4.5-88.9-1.5-133.4,15-89.1,45-133.6,78-88.9,79.5-133.4-43.5-89.1-70.5-133.8-36-89.3-31.5-133.8c4.5-44.5,22.5-88.9,36-133.4s22.5-89.1,27-111.5l4.5-22.3h181l-7.5,22.3c-7.5,22.4-22.5,67-30,111.5s-7.5,88.9,3,133.4c10.5,44.5,31.5,89.1,42,133.8s10.5,89.3,10.5,133.8,0,88.9-1.5,133.4-4.5,89.1-15,133.6-28.5,88.9-36,133.4-4.5,89.1,3,133.8,19.5,89.3,16.5,133.8-21,88.9-27,133.4,0,89.1,3,111.5l3,22.3h-163Z"/>
  <path class="cls-3" d="M575,1470l1.5-22.3c1.5-22.4,4.5-67-9-111.5s-43.5-88.9-63-133.4-28.5-89.1-31.5-133.8,0-89.3,3-133.8,6-88.9,10.5-133.4,10.5-89.1,34.5-133.6,66-88.9,70.5-133.4-28.5-89.1-51-133.8-34.5-89.3-34.5-133.8,12-88.9,24-133.4,24-89.1,30-111.5l6-22.3h82l-4.5,22.3c-4.5,22.4-13.5,67-27,111.5s-31.5,88.9-36,133.4c-4.5,44.5,4.5,89.1,31.5,133.8s72,89.3,70.5,133.8-49.5,88.9-79.5,133.4-42,89.1-45,133.6,3,88.9,1.5,133.4-10.5,89.1-10.5,133.8,9,89.3,25.5,133.8,40.5,88.9,51,133.4,7.5,89.1,6,111.5l-1.5,22.3h-55Z"/>
  <path class="cls-5" d="M341,1470l-6-22.3c-6-22.4-18-67-25.5-111.5s-10.5-88.9-12-133.4-1.5-89.1,6-133.8,22.5-89.3,27-133.8-1.5-88.9-10.5-133.4-21-89.1-10.5-133.6,43.5-88.9,45-133.4-28.5-89.1-36-133.8,7.5-89.3,6-133.8c-1.5-44.5-19.5-88.9-21-133.4s13.5-89.1,21-111.5l7.5-22.3h235l-6,22.3c-6,22.4-18,67-30,111.5s-24,88.9-24,133.4,12,89.1,34.5,133.8,55.5,89.3,51,133.8-46.5,88.9-70.5,133.4-30,89.1-34.5,133.6-7.5,88.9-10.5,133.4-6,89.1-3,133.8,12,89.3,31.5,133.8,49.5,88.9,63,133.4,10.5,89.1,9,111.5l-1.5,22.3h-235Z"/>
  <path class="cls-6" d="M251,1470l-3-22.3c-3-22.4-9-67-13.5-111.5s-7.5-88.9-13.5-133.4-15-89.1-13.5-133.8,13.5-89.3,18-133.8,1.5-88.9-9-133.4-28.5-89.1-25.5-133.6,27-88.9,25.5-133.4-28.5-89.1-33-133.8,13.5-89.3,24-133.8c10.5-44.5,13.5-88.9,10.5-133.4s-12-89.1-16.5-111.5L197,0h136l-7.5,22.3c-7.5,22.4-22.5,67-21,111.5s19.5,88.9,21,133.4c1.5,44.5-13.5,89.1-6,133.8s37.5,89.3,36,133.8-34.5,88.9-45,133.4,1.5,89.1,10.5,133.6,15,88.9,10.5,133.4-19.5,89.1-27,133.8-7.5,89.3-6,133.8,4.5,88.9,12,133.4,19.5,89.1,25.5,111.5l6,22.3h-91Z"/>
  <path class="cls-4" d="M188,1470l-3-22.3c-3-22.4-9-67-10.5-111.5s1.5-88.9-7.5-133.4-30-89.1-33-133.8,12-89.3,19.5-133.8,7.5-88.9-3-133.4-31.5-89.1-33-133.6,16.5-88.9,18-133.4-13.5-89.1-16.5-133.8,6-89.3,15-133.8c9-44.5,18-88.9,19.5-133.4s-4.5-89.1-7.5-111.5l-3-22.3h55l4.5,22.3c4.5,22.4,13.5,67,16.5,111.5s0,88.9-10.5,133.4c-10.5,44.5-28.5,89.1-24,133.8s31.5,89.3,33,133.8-22.5,88.9-25.5,133.4,15,89.1,25.5,133.6,13.5,88.9,9,133.4-16.5,89.1-18,133.8,7.5,89.3,13.5,133.8,9,88.9,13.5,133.4,10.5,89.1,13.5,111.5l3,22.3h-64Z"/>
  <path class="cls-1" d="M0,1470V0H144l3,22.3c3,22.4,9,67,7.5,111.5s-10.5,88.9-19.5,133.4c-9,44.5-18,89.1-15,133.8s18,89.3,16.5,133.8-19.5,88.9-18,133.4,22.5,89.1,33,133.6,10.5,88.9,3,133.4-22.5,89.1-19.5,133.8,24,89.3,33,133.8,6,88.9,7.5,133.4,7.5,89.1,10.5,111.5l3,22.3H0Z"/>
</svg>