<?xml version="1.0" encoding="UTF-8"?>
<svg id="Layer_1" data-name="Layer 1" xmlns="http://www.w3.org/2000/svg" viewBox="0 0 25.12 25.95">
  <defs>
    <style>
      .cls-1 {
        fill: #f3fafb;
      }

      .cls-2 {
        fill: #f7fcfe;
      }

      .cls-3 {
        fill: #f5fbfd;
      }

      .cls-4 {
        fill: #96c9ec;
      }

      .cls-5 {
        fill: #9ddbef;
      }

      .cls-6 {
        fill: #c0dff5;
      }

      .cls-7 {
        fill: #467ca5;
      }

      .cls-8 {
        fill: #63a6ce;
      }

      .cls-9 {
        fill: #2a7ab7;
      }

      .cls-10 {
        fill: #3d3f40;
      }

      .cls-11 {
        fill: #60c9e1;
      }

      .cls-12 {
        fill: #5f9ed5;
      }

      .cls-13 {
        fill: #79c7ef;
      }
    </style>
  </defs>
  <path class="cls-10" d="M3.24,23.28c.1,.14,.19,.28,.29,.42,2.13,2.05,4.72,2.57,7.52,2.06,3.49-.63,6.85-1.86,10.42-2.12,1.52-.36,2.15-1.55,2.45-2.88,1.02-4.49,1.53-9.03,.95-13.62-.2-1.6-.54-3.26-1.96-4.37-.89-1.51-2.34-2.15-3.98-2.25-2.28-.15-4.58-.13-6.86-.19-.8-.09-1.59-.18-2.39-.25C3.49-.48,.74,1.8,.15,8c-.02,.26,0,.53,0,.8-.19,.78-.14,1.56-.07,2.35-.21,1.39,.03,2.77,.28,4.11,.52,2.83,.97,5.71,2.9,8.04,0,0,0-.02,0-.02Z"/>
  <path class="cls-7" d="M21.47,23.65c-3.57,.26-6.93,1.49-10.42,2.12-2.8,.5-5.39-.01-7.52-2.06-.1-.14-.19-.28-.29-.42,0,0,0,.02,0,.02,.02-.67-.07-1.38,.62-1.82,.53,.19,.89,.71,1.49,.73,1.98,.96,4.02,1.48,6.27,1.12,1.81-.29,3.47-1.1,5.27-1.34,1.81-.24,3.59-.51,5.08-1.69,.72,1.25,.12,2.3-.51,3.34Z"/>
  <path class="cls-9" d="M21.47,23.65c.63-1.04,1.23-2.09,.51-3.34,.26-.89,.72-1.7,.84-2.65,.5-4,.47-7.95-.81-11.82,1.46-.68,.79-1.99,.9-3.06,1.42,1.11,1.76,2.78,1.96,4.37,.59,4.59,.07,9.14-.95,13.62-.3,1.33-.93,2.52-2.45,2.88Z"/>
  <path class="cls-6" d="M.15,8.8c0-.27-.02-.53,0-.8C.74,1.8,3.49-.48,9.68,.08c.8,.07,1.59,.17,2.39,.25-.44,.34-.76,.93-1.38,.93-1.3,0-2.45,.6-3.69,.85,.24-1.24-.02-1.55-1.14-1.14C3.76,1.73,2.44,3.28,1.7,5.34c-.23,.63-.54,1.28-.01,2.09,.44-.89,.71-1.72,1.21-2.36,.94-1.19,1.6-2.83,3.57-2.69-.35,.46-1.04,.63-1.08,1.33-.17,.19-.34,.37-.51,.56-.44,.04-.55,.36-.59,.73-.09,.11-.17,.21-.26,.32-1.42,.76-1.55,2.18-1.8,3.55,0,1.59-.02,3.18-.02,4.77-.76,.54-.81-.43-1.25-.58-.02-.16-.04-.33-.07-.49,.02-1.31-.2-2.57-.73-3.77Z"/>
  <path class="cls-5" d="M7,2.12c1.24-.25,2.38-.85,3.69-.85,.62,0,.94-.59,1.38-.93,2.29,.05,4.58,.04,6.86,.19,1.64,.1,3.09,.74,3.98,2.25-.11,1.07,.56,2.38-.9,3.06-.78-1-1.7-1.84-2.88-2.31-4.6-1.83-9.2-2.75-13.75,.19,.04-.7,.73-.88,1.08-1.33,.18-.09,.35-.18,.53-.27Z"/>
  <path class="cls-8" d="M.88,12.57c.02,.16,.04,.33,.07,.49,.09,.43,.13,.88,.28,1.29,.87,2.38,1.76,4.75,2.65,7.13-.7,.44-.6,1.15-.62,1.82C1.33,20.97,.88,18.09,.36,15.26c-.25-1.35-.49-2.72-.28-4.11,.68,.24,.34,1.06,.8,1.42Z"/>
  <path class="cls-13" d="M.88,12.57c-.47-.36-.12-1.18-.8-1.42-.07-.79-.12-1.57,.07-2.35,.53,1.2,.75,2.46,.73,3.77Z"/>
  <path class="cls-11" d="M3.24,23.28c.1,.14,.19,.28,.29,.42-.1-.14-.19-.28-.29-.42Z"/>
  <path class="cls-12" d="M5.39,3.72c4.54-2.95,9.15-2.02,13.75-.19,1.17,.47,2.1,1.31,2.88,2.31,1.28,3.87,1.32,7.82,.81,11.82-.12,.95-.58,1.76-.84,2.65-1.49,1.17-3.27,1.44-5.08,1.69-1.8,.24-3.46,1.05-5.27,1.34-2.25,.36-4.29-.16-6.27-1.12-1.29-2.53-2.26-5.17-2.7-7.99-.04-.28-.17-.5-.47-.57,0-1.59,.02-3.18,.02-4.77,.9-1.03,1.17-2.38,1.8-3.55,.09-.11,.17-.21,.26-.32,.38-.1,.54-.37,.59-.73,.17-.19,.34-.37,.51-.56Zm7.77,14.76c.14,.73,.62,1.04,1.33,1.05,.71,0,1.42,.01,2.13,0,.94-.01,1.36-.52,1.36-1.44,0-3.6,0-7.19,0-10.79,0-.99-.52-1.56-1.52-1.68-2.09-.24-3.19,.1-3.48,1.12-.04,.13,.11,.32,.17,.48,0,3.01-.01,6.03,.02,9.04,0,.74-.44,1.48,0,2.21Zm-1.34-5.43c0-1.61,.01-3.21,0-4.82-.01-1.8-.53-2.32-2.29-2.35-2.48-.04-3,.3-3.03,2.25-.05,3.12-.04,6.24,0,9.37,.02,1.57,.77,2.28,2.3,2.3,.4,0,.8,0,1.2,0,1.2,0,1.82-.6,1.82-1.8,0-1.65,0-3.3,0-4.95Z"/>
  <path class="cls-4" d="M2.2,13.64c.3,.07,.43,.29,.47,.57,.43,2.82,1.41,5.46,2.7,7.99-.61-.02-.97-.54-1.49-.73-.88-2.38-1.78-4.75-2.65-7.13-.15-.41-.19-.86-.28-1.29,.44,.15,.5,1.12,1.25,.58Z"/>
  <path class="cls-3" d="M7,2.12c-.18,.09-.35,.18-.53,.27-1.96-.14-2.63,1.5-3.57,2.69-.51,.64-.77,1.47-1.21,2.36-.53-.81-.22-1.47,.01-2.09C2.44,3.28,3.76,1.73,5.85,.97c1.12-.4,1.38-.1,1.14,1.14Z"/>
  <path class="cls-5" d="M4.03,5.33c-.63,1.17-.9,2.52-1.8,3.55,.25-1.36,.38-2.78,1.8-3.55Z"/>
  <path class="cls-5" d="M4.87,4.28c-.05,.36-.21,.63-.59,.73,.04-.37,.15-.68,.59-.73Z"/>
  <path class="cls-9" d="M11.82,13.05c0,1.65,0,3.3,0,4.95,0,1.21-.62,1.8-1.82,1.8-.4,0-.8,0-1.2,0-1.53-.02-2.29-.74-2.3-2.3-.03-3.12-.04-6.24,0-9.37,.03-1.95,.55-2.3,3.03-2.25,1.76,.03,2.28,.55,2.29,2.35,.01,1.61,0,3.21,0,4.82Zm-.76-.28c0-1.65-.02-3.3,0-4.94,.02-.97-.42-1.39-1.37-1.35-.44,.02-.89-.01-1.34,.01-.67,.04-1.09,.37-1.09,1.08,0,3.47-.06,6.95,.02,10.42,.04,1.67,1.45,1.01,2.35,1.12,1.01,.12,1.46-.35,1.43-1.4-.05-1.65-.01-3.3-.01-4.94Z"/>
  <path class="cls-9" d="M13.14,7.23c-.06-.16-.2-.35-.17-.48,.29-1.02,1.39-1.36,3.48-1.12,1,.11,1.52,.68,1.52,1.68,.01,3.6,0,7.19,0,10.79,0,.91-.42,1.42-1.36,1.44-.71,0-1.42,0-2.13,0-.71,0-1.19-.32-1.33-1.05,.11-.12,.21-.24,.32-.36,.61,.77,2.21,1.17,3.22,.78,.96-.37,.72-1.22,.72-1.94,.02-2.93,.01-5.85,0-8.78,0-.74,.17-1.56-.82-1.88-1.21-.38-2.55,.01-3.13,.93-.11,0-.22,0-.33,0Z"/>
  <path class="cls-9" d="M13.48,18.11c-.11,.12-.21,.24-.32,.36-.43-.74,.02-1.47,0-2.21-.04-3.01-.02-6.03-.02-9.04,.11,0,.22,0,.33,0,0,3.63,0,7.26,0,10.89Z"/>
  <path class="cls-2" d="M11.07,12.76c0,1.65-.03,3.3,.01,4.94,.03,1.04-.43,1.51-1.43,1.4-.9-.11-2.31,.56-2.35-1.12-.08-3.47-.02-6.95-.02-10.42,0-.72,.42-1.05,1.09-1.08,.44-.03,.89,0,1.34-.01,.95-.04,1.39,.38,1.37,1.35-.03,1.65,0,3.3,0,4.94Z"/>
  <path class="cls-1" d="M13.48,18.11c0-3.63,0-7.26,0-10.89,.58-.91,1.92-1.31,3.13-.93,.99,.31,.82,1.14,.82,1.88,0,2.93,.01,5.85,0,8.78,0,.72,.24,1.57-.72,1.94-1,.39-2.61,0-3.22-.78Z"/>
</svg>