<?xml version="1.0" encoding="UTF-8"?>
<svg id="Layer_1" data-name="Layer 1" xmlns="http://www.w3.org/2000/svg" viewBox="0 0 25.19 25.95">
  <defs>
    <style>
      .cls-1 {
        fill: #f3fafb;
      }

      .cls-2 {
        fill: #f7fcfe;
      }

      .cls-3 {
        fill: #96c9ec;
      }

      .cls-4 {
        fill: #9ddbef;
      }

      .cls-5 {
        fill: #c0dff5;
      }

      .cls-6 {
        fill: #467ca5;
      }

      .cls-7 {
        fill: #63a6ce;
      }

      .cls-8 {
        fill: #2a7ab7;
      }

      .cls-9 {
        fill: #2ea4d8;
      }

      .cls-10 {
        fill: #3d3f40;
      }

      .cls-11 {
        fill: #60c9e1;
      }

      .cls-12 {
        fill: #5f9ed5;
      }

      .cls-13 {
        fill: #79c7ef;
      }
    </style>
  </defs>
  <path class="cls-10" d="M3.24,23.35l.29,.38c1.82,1.76,4.06,2.42,6.48,2.15,3.88-.44,7.56-1.94,11.47-2.24,.23,0,.43-.06,.56-.27h0c1.28-.42,1.73-1.56,1.94-2.66,.92-4.85,1.81-9.72,.7-14.67-.3-1.33-.7-2.67-1.91-3.55-1.24-1.79-3.14-2.06-5.07-2.14-2.04-.09-4.08-.05-6.13-.06C10.44,0,9.28,0,8.12,0,3.19,0,.89,2.05,.29,7.01,0,7.73,0,8.48,.09,9.24v.33c-.34,3.76,.35,7.38,1.57,10.91,.36,1.04,.76,2.1,1.59,2.9v-.02Z"/>
  <path class="cls-6" d="M21.48,23.64c-3.91,.3-7.6,1.8-11.47,2.24-2.42,.28-4.67-.39-6.48-2.15-.1-.13-.19-.26-.29-.38,0,0,.01,.02,.01,.02,.07-.67-.16-1.43,.55-1.91,.58,.33,1.16,.67,1.84,.8,2.2,1.29,4.57,1.37,6.99,.88,1.83-.37,3.56-1.2,5.44-1.35,1.39-.11,2.61-.55,3.69-1.41,1.14,.9,.24,1.99,.28,2.99,0,0,0,0,0,0-.23,0-.42,.08-.56,.27Z"/>
  <path class="cls-8" d="M22.03,23.38c-.04-1,.86-2.09-.28-2.99,.95-1.41,1.23-3.03,1.33-4.66,.2-3.37,.01-6.72-1.01-9.98,1.49-.81,.82-2.09,.7-3.25,1.2,.88,1.61,2.22,1.91,3.55,1.11,4.94,.23,9.82-.7,14.67-.21,1.1-.67,2.24-1.94,2.67Z"/>
  <path class="cls-5" d="M.29,7.01C.89,2.05,3.19,0,8.12,0c1.15,0,2.32,0,3.45,.29,.03,.64-.39,.84-.91,.89-1.28,.14-2.47,.6-3.69,.94,.05-.37,.48-.81,.07-1.1-.54-.39-1.21-.26-1.78,.03-1.96,1.02-3.1,2.72-3.79,4.75-.14,.4-.32,1.04,.14,1.2,.59,.21,.54-.53,.74-.87,.92-1.62,1.7-3.36,3.85-3.71,0,.18,0,.37,.01,.55l-1.63,1.6c-.08,.09-.16,.19-.24,.28h0c-.46,.06-.56,.39-.56,.78h0c-1.03,.73-1.5,1.7-1.35,2.96-.02,.18-.05,.35-.07,.53-.05,.11-.09,.21-.14,.32-.02,.62-.05,1.23-.07,1.85-.36,.51-.19,1.1-.22,1.65-.03,.49,.02,1.01-.71,.97-.14-.64-.23-1.29-.45-1.9-.29-.8,.1-1.78-.67-2.45,0-.11,0-.22,0-.33,.37-.72,.23-1.48,.2-2.23Z"/>
  <path class="cls-4" d="M6.97,2.13c1.22-.34,2.41-.8,3.69-.94,.52-.06,.95-.25,.91-.89,2.04,.01,4.09-.03,6.13,.06,1.93,.08,3.84,.36,5.07,2.14,.12,1.16,.79,2.44-.7,3.25-.85-.7-1.55-1.58-2.59-2.07C15.14,1.63,10.74,1.15,6.21,2.99c0-.18,0-.37-.01-.55,.26-.1,.52-.21,.78-.31Z"/>
  <path class="cls-7" d="M.08,9.57c.77,.66,.39,1.64,.67,2.45,.22,.61,.3,1.27,.45,1.91-.08,.48,.19,.86,.34,1.27,.75,2.09,1.78,4.08,2.26,6.28-.71,.48-.49,1.24-.55,1.91-.82-.81-1.22-1.86-1.59-2.9C.44,16.95-.25,13.33,.08,9.57Z"/>
  <path class="cls-13" d="M.29,7.01c.03,.75,.16,1.51-.2,2.23C0,8.48,0,7.73,.29,7.01Z"/>
  <path class="cls-9" d="M21.48,23.64c.13-.19,.33-.27,.56-.27-.12,.22-.32,.28-.56,.27Z"/>
  <path class="cls-11" d="M3.24,23.35c.1,.13,.19,.26,.29,.38-.1-.13-.19-.26-.29-.38Z"/>
  <path class="cls-12" d="M6.21,2.99c4.53-1.84,8.94-1.35,13.28,.69,1.04,.49,1.74,1.37,2.59,2.07,1.02,3.26,1.21,6.61,1.01,9.98-.1,1.63-.38,3.25-1.33,4.66-1.08,.86-2.3,1.3-3.69,1.41-1.88,.15-3.61,.98-5.44,1.35-2.42,.49-4.78,.41-6.99-.88-1.06-1.35-1.6-2.92-2.15-4.52-.72-2.1-.86-4.3-1.35-6.44,.02-.62,.05-1.23,.07-1.85,.05-.11,.09-.21,.14-.32,.02-.18,.05-.35,.07-.53,.51-.96,1.04-1.91,1.35-2.96,0,0,0,0,0,0,.35-.14,.53-.41,.56-.78,0,0,0,0,0,0,.08-.09,.16-.19,.24-.28l1.63-1.6Zm1.87,9.93c0,2.14,0,4.28,0,6.42,0,.57-.1,1.19,.61,1.48,.63,.25,1.13-.02,1.61-.38,.93-.69,1.84-1.4,2.76-2.1,1.73-1.32,3.5-2.6,5.2-3.97,1.42-1.15,1.38-2.04-.01-3.08-2.63-1.97-5.27-3.94-7.89-5.92-.49-.37-.87-.98-1.61-.62-.75,.36-.66,1.09-.66,1.75,0,2.14,0,4.28,0,6.42Z"/>
  <path class="cls-3" d="M2.14,11.3c.49,2.14,.63,4.34,1.35,6.44,.55,1.6,1.09,3.17,2.15,4.52-.67-.13-1.25-.46-1.84-.8-.48-2.19-1.51-4.18-2.26-6.28-.15-.41-.43-.8-.34-1.27,.74,.05,.69-.48,.72-.97,.03-.55-.14-1.14,.22-1.65Z"/>
  <path class="cls-1" d="M6.97,2.13c-.26,.1-.52,.21-.78,.31-2.14,.34-2.93,2.09-3.85,3.71-.19,.34-.15,1.08-.74,.87-.46-.16-.27-.8-.14-1.2,.69-2.04,1.84-3.73,3.79-4.75,.56-.29,1.23-.42,1.78-.03,.41,.29-.02,.73-.07,1.1Z"/>
  <path class="cls-4" d="M3.77,5.65c-.31,1.05-.84,2-1.35,2.96-.15-1.26,.32-2.24,1.35-2.96Z"/>
  <path class="cls-4" d="M4.33,4.87c-.03,.37-.21,.63-.56,.78,0-.39,.1-.72,.56-.78Z"/>
  <path class="cls-4" d="M2.35,9.13c-.05,.11-.09,.21-.14,.32,.05-.11,.09-.21,.14-.32Z"/>
  <path class="cls-4" d="M4.58,4.58c-.08,.09-.16,.19-.24,.28,.08-.09,.16-.19,.24-.28Z"/>
  <path class="cls-8" d="M8.08,12.91c0-2.14,0-4.28,0-6.42,0-.66-.1-1.39,.66-1.75,.74-.36,1.12,.25,1.61,.62,2.62,1.98,5.26,3.95,7.89,5.92,1.39,1.04,1.43,1.93,.01,3.08-1.69,1.37-3.46,2.65-5.2,3.97-.92,.7-1.83,1.41-2.76,2.1-.48,.36-.98,.63-1.61,.38-.71-.29-.61-.91-.61-1.48,0-2.14,0-4.28,0-6.42Zm.57-.08h0c0,2.1,0,4.19,0,6.29,0,.34-.1,.75,.28,.97,.38,.22,.68-.05,.96-.26,2.71-2.03,5.42-4.06,8.14-6.1,.76-.57,.78-1.15,.03-1.73-2.73-2.08-5.46-4.16-8.2-6.23-.81-.61-1.21-.36-1.2,.64,0,2.14,0,4.28,0,6.42Z"/>
  <path class="cls-2" d="M8.65,12.83c0-2.14,0-4.28,0-6.42,0-1,.39-1.25,1.2-.64,2.74,2.07,5.47,4.15,8.2,6.23,.76,.58,.73,1.16-.03,1.73-2.71,2.03-5.42,4.07-8.14,6.1-.28,.21-.58,.48-.96,.26-.38-.22-.28-.63-.28-.97,0-2.1,0-4.19,0-6.29h0Z"/>
</svg>