<?xml version="1.0" encoding="UTF-8"?>
<svg id="Layer_1" data-name="Layer 1" xmlns="http://www.w3.org/2000/svg" viewBox="0 0 25.05 25.82">
  <defs>
    <style>
      .cls-1 {
        fill: #f3fafb;
      }

      .cls-2 {
        fill: #96c9ec;
      }

      .cls-3 {
        fill: #9ddbef;
      }

      .cls-4 {
        fill: #c0dff5;
      }

      .cls-5 {
        fill: #afe1f5;
      }

      .cls-6 {
        fill: #467ca5;
      }

      .cls-7 {
        fill: #63a6ce;
      }

      .cls-8 {
        fill: #2a7ab7;
      }

      .cls-9 {
        fill: #2ea4d8;
      }

      .cls-10 {
        fill: #3d3f40;
      }

      .cls-11 {
        fill: #60c9e1;
      }

      .cls-12 {
        fill: #5f9ed5;
      }

      .cls-13 {
        fill: #79c7ef;
      }
    </style>
  </defs>
  <path class="cls-10" d="M3.23,23.26c.1,.13,.19,.25,.29,.38,1.9,1.79,4.2,2.41,6.72,2.1,3.68-.45,7.17-1.92,10.91-2.14,.31,0,.6-.05,.79-.33h0c1.33-.45,1.74-1.64,1.98-2.79,.92-4.41,1.48-8.87,.88-13.37-.22-1.66-.61-3.34-2.03-4.5-.84-1.29-2.1-1.85-3.56-2.09-2.3-.38-4.61,.02-6.91-.18C10.82,.1,9.32,0,7.82,0,3.46,.02,1.29,1.77,.42,6.04c-.17,.82-.19,1.66-.28,2.49-.2,1.06-.16,2.12-.06,3.18-.17,1.16,.05,2.3,.25,3.43,.51,2.87,1.03,5.76,2.91,8.15,0,0-.01-.02-.01-.02Z"/>
  <path class="cls-6" d="M21.15,23.6c-3.74,.22-7.23,1.69-10.91,2.14-2.52,.31-4.82-.32-6.72-2.1-.1-.13-.19-.25-.29-.38,0,0,.01,.02,.01,.02,.04-.68-.14-1.42,.55-1.92,.43,.21,.85,.42,1.28,.63,2.82,1.47,5.75,1.72,8.77,.72,1.4-.46,2.81-.88,4.27-1.02,1.34-.13,2.5-.57,3.54-1.39,.62,.19,.58,.71,.54,1.18-.05,.6-.17,1.2-.26,1.79,0,0,0,0,0,0-.32-.03-.61,.02-.79,.33Z"/>
  <path class="cls-8" d="M21.94,23.28c.09-.6,.21-1.19,.26-1.79,.04-.47,.08-.99-.54-1.18,.95-1.4,1.23-3.02,1.33-4.64,.2-3.36,.01-6.7-1.01-9.95,.57-.11,.71-.56,.86-1.03,.23-.71-.16-1.38-.06-2.07,1.42,1.17,1.81,2.85,2.03,4.5,.6,4.5,.04,8.96-.88,13.37-.24,1.15-.65,2.34-1.98,2.79Z"/>
  <path class="cls-5" d="M22.77,2.61c-.1,.69,.29,1.37,.06,2.07-.15,.47-.29,.92-.86,1.03-.88-.74-1.62-1.64-2.72-2.12-4.41-1.95-8.84-2.58-13.36-.37,.09-.26,.18-.53,.27-.79,.36-.17,.72-.34,1.08-.52,1.68-.53,3.55-.45,5.05-1.57,2.3,.19,4.62-.21,6.91,.18,1.46,.24,2.72,.81,3.56,2.09Z"/>
  <path class="cls-4" d="M12.3,.34c-1.5,1.11-3.37,1.03-5.05,1.57,.08-.91-.37-1.17-1.21-1.05C3.82,1.18,1.2,4.5,1.42,6.8c0,.1,.15,.18,.3,.33,.42-.74,.76-1.46,1.19-2.11,.8-1.2,1.56-2.5,3.26-2.59-.09,.26-.18,.53-.27,.79,0,0,0,0,0,0-.96,.11-1.51,.63-1.59,1.61h0c-1.27,.92-2.05,2.09-1.9,3.74-.02,.17-.04,.34-.06,.5-.86,1.01-.27,2.2-.43,3.3-.09,.58,.24,1.29-.59,1.59-.19-.71-.38-1.41-.57-2.12,0-1.15,.06-2.31-.62-3.33,.09-.83,.11-1.68,.28-2.49C1.29,1.77,3.46,.02,7.82,0c1.5,0,3,.1,4.49,.34Z"/>
  <path class="cls-7" d="M.76,11.85c.19,.71,.38,1.41,.57,2.12,0,.58,.15,1.12,.35,1.67,.7,1.91,1.68,3.72,2.12,5.72-.69,.49-.51,1.24-.55,1.92C1.36,20.89,.85,18.01,.33,15.14c-.2-1.12-.42-2.27-.25-3.43,.23,.05,.45,.1,.68,.14Z"/>
  <path class="cls-13" d="M.76,11.85c-.23-.05-.45-.1-.68-.14-.1-1.06-.14-2.12,.06-3.18,.68,1.02,.61,2.18,.62,3.33Z"/>
  <path class="cls-9" d="M21.15,23.6c.18-.31,.47-.36,.79-.33-.19,.28-.48,.34-.79,.33Z"/>
  <path class="cls-11" d="M3.23,23.26c.1,.13,.19,.25,.29,.38-.1-.13-.19-.25-.29-.38Z"/>
  <path class="cls-12" d="M2.35,9.08c.02-.17,.04-.34,.06-.5,.63-1.24,1.27-2.49,1.9-3.73,0,0,0,0,0,0,.65-.42,1.19-.95,1.59-1.61,0,0,0,0,0,0,4.52-2.21,8.95-1.58,13.36,.37,1.1,.48,1.84,1.38,2.72,2.12,1.02,3.25,1.21,6.58,1.01,9.95-.1,1.63-.38,3.24-1.33,4.64-1.04,.82-2.21,1.26-3.54,1.39-1.46,.14-2.87,.55-4.27,1.02-3.02,1-5.95,.76-8.77-.72,.02-.17,.1-.37,.03-.49-2.16-3.87-2.85-8.06-2.76-12.43Zm17.98,3.43c.06-1.03-.02-2.08-.51-3.07-2.25-4.49-8.01-5.97-11.85-2.92-.68,.54-1.22,.85-1.88,.01-.26-.33-.68-.42-1.09-.21-.32,.17-.43,.48-.36,.8,.39,1.72,.13,3.46,.21,5.18,.05,.99,.38,1.47,1.51,1.19,1.25-.3,2.53-.48,3.81-.62,1.94-.21,2.04-.32,1.04-1.93-.36-.59-.37-.97,.33-1.22,1.39-.5,3.2,.18,3.95,1.48,.73,1.29,.33,3-.98,4.14-1.15,1.01-2.6,1.02-3.86-.05-.5-.43-.94-.55-1.57-.37-.85,.25-1.73,.41-2.6,.59-.72,.15-.86,.53-.53,1.15,.5,.96,1.19,1.78,2.07,2.39,2.84,1.97,5.83,2.11,8.77,.34,2.51-1.52,3.74-3.84,3.54-6.88Z"/>
  <path class="cls-2" d="M2.35,9.08c-.09,4.37,.6,8.56,2.76,12.43,.07,.12-.02,.33-.03,.49-.43-.21-.85-.42-1.28-.63-.43-2.01-1.42-3.81-2.12-5.72-.2-.55-.35-1.09-.35-1.67,.82-.3,.5-1.02,.59-1.59,.17-1.1-.43-2.3,.43-3.3Z"/>
  <path class="cls-1" d="M6.17,2.43c-1.7,.09-2.45,1.38-3.26,2.59-.44,.65-.78,1.37-1.19,2.11-.14-.16-.29-.24-.3-.33C1.2,4.5,3.82,1.18,6.04,.86c.83-.12,1.29,.14,1.21,1.05-.36,.17-.72,.34-1.08,.52Z"/>
  <path class="cls-3" d="M4.3,4.84c-.63,1.24-1.26,2.49-1.9,3.73-.15-1.64,.62-2.82,1.9-3.73Z"/>
  <path class="cls-3" d="M5.89,3.23c-.4,.66-.94,1.2-1.59,1.61,.08-.98,.63-1.5,1.59-1.61Z"/>
  <path class="cls-8" d="M20.33,12.51c.2,3.04-1.02,5.37-3.54,6.88-2.94,1.78-5.93,1.63-8.77-.34-.89-.61-1.57-1.43-2.07-2.39-.32-.62-.19-1.01,.53-1.15,.87-.18,1.75-.34,2.6-.59,.63-.18,1.07-.05,1.57,.37,1.25,1.07,2.7,1.05,3.86,.05,1.31-1.14,1.71-2.86,.98-4.14-.74-1.3-2.56-1.98-3.95-1.48-.7,.25-.69,.63-.33,1.22,1,1.62,.91,1.72-1.04,1.93-1.28,.14-2.56,.32-3.81,.62-1.13,.28-1.46-.21-1.51-1.19-.09-1.73,.17-3.47-.21-5.18-.07-.32,.04-.63,.36-.8,.41-.22,.83-.13,1.09,.21,.66,.84,1.2,.53,1.88-.01,3.84-3.05,9.6-1.57,11.85,2.92,.5,.99,.58,2.04,.51,3.07Zm-9.09-.44c-.35-.4-.48-.56-.63-.72-1.03-1.13-.98-1.41,.38-2.08,1.71-.84,3.76-.33,4.87,1.22,1.08,1.51,.95,3.56-.32,4.91-1.43,1.52-3.49,1.78-5.2,.64-.67-.45-3.66-.33-3.69,.18-.06,1.12,.95,1.59,1.69,2.2,.14,.11,.29,.2,.44,.3,3.17,2.04,7.22,1.37,9.57-1.58,2.26-2.85,1.94-7.05-.74-9.56-2.73-2.56-6.93-2.67-9.68-.15-.69,.63-1.17,.85-1.83,.08-.13-.15-.3-.34-.73-.23,.07,1.63,.14,3.29,.22,4.96,.02,.53,.34,.67,.81,.59,1.53-.24,3.06-.48,4.85-.75Z"/>
  <path class="cls-1" d="M11.23,12.06c-1.79,.28-3.32,.52-4.85,.75-.47,.07-.79-.06-.81-.59-.07-1.66-.15-3.33-.22-4.96,.43-.1,.6,.08,.73,.23,.66,.78,1.13,.56,1.83-.08,2.75-2.52,6.95-2.42,9.68,.15,2.67,2.51,3,6.71,.74,9.56-2.34,2.95-6.4,3.62-9.57,1.58-.15-.1-.3-.19-.44-.3-.74-.61-1.76-1.08-1.69-2.2,.03-.5,3.02-.62,3.69-.18,1.71,1.13,3.77,.88,5.2-.64,1.26-1.34,1.4-3.4,.32-4.91-1.11-1.55-3.16-2.06-4.87-1.22-1.36,.67-1.41,.95-.38,2.08,.14,.16,.28,.32,.63,.72Z"/>
</svg>