<?xml version="1.0" encoding="UTF-8"?>
<svg id="Layer_1" data-name="Layer 1" xmlns="http://www.w3.org/2000/svg" viewBox="0 0 25.12 25.85">
  <defs>
    <style>
      .cls-1 {
        fill: #f3fafb;
      }

      .cls-2 {
        fill: #96c9ec;
      }

      .cls-3 {
        fill: #9ddbef;
      }

      .cls-4 {
        fill: #c0dff5;
      }

      .cls-5 {
        fill: #467ca5;
      }

      .cls-6 {
        fill: #63a6ce;
      }

      .cls-7 {
        fill: #2a7ab7;
      }

      .cls-8 {
        fill: #2ea4d8;
      }

      .cls-9 {
        fill: #3d3f40;
      }

      .cls-10 {
        fill: #60c9e1;
      }

      .cls-11 {
        fill: #5f9ed5;
      }

      .cls-12 {
        fill: #79c7ef;
      }
    </style>
  </defs>
  <path class="cls-9" d="M.1,8.03c-.02,.31-.04,.63-.06,.94,0,.2,0,.4,0,.61-.21,4.89,.45,9.58,3.14,13.81,.22,.47,.65,.71,1.06,.98,2.46,1.68,5.17,1.74,7.94,1.11,2.98-.68,5.92-1.57,8.98-1.87,.23,.03,.46,.04,.56-.24v.03c1.45-.25,1.92-1.47,2.15-2.59,1-4.88,1.85-9.79,.76-14.77-.29-1.32-.68-2.68-1.9-3.54-.72-1.14-1.83-1.64-3.09-1.93-2.16-.49-4.35-.1-6.53-.19C11.46,.25,9.82,.04,8.18,0,3.21-.1,.84,2.02,.24,7c-.14,.18-.16,.37-.07,.58-.02,.15-.05,.31-.07,.46Z"/>
  <path class="cls-5" d="M21.15,23.62c-3.06,.3-6,1.19-8.98,1.87-2.77,.63-5.47,.56-7.94-1.11-.4-.27-.83-.52-1.06-.98,.14-.67-.2-1.48,.6-1.95,.42,.21,.85,.42,1.27,.63,2.37,1.24,4.86,1.65,7.5,1.03,1.86-.43,3.65-1.18,5.57-1.36,1.32-.12,2.53-.51,3.55-1.38,1.21,1,.32,2.02,.03,3.04,0,0,0-.03,0-.03-.19,.08-.37,.16-.56,.24Z"/>
  <path class="cls-7" d="M21.7,23.41c.29-1.02,1.18-2.04-.03-3.04,1.09-1.52,1.25-3.29,1.34-5.06,.18-3.24,0-6.46-1.05-9.57,1.56-.78,.77-2.09,.74-3.23,1.22,.86,1.61,2.21,1.9,3.54,1.09,4.98,.24,9.9-.76,14.77-.23,1.12-.7,2.34-2.15,2.59Z"/>
  <path class="cls-4" d="M.24,7C.84,2.02,3.21-.1,8.18,0c1.64,.04,3.28,.25,4.91,.38-1.92,.68-3.9,1.13-5.89,1.53,.1-1.25-.71-1.12-1.49-.94C3.48,1.49,1.29,4.52,1.41,6.91c0,.05,.13,.1,.25,.2,.52-.56,.67-1.32,1.06-1.93,.83-1.28,1.66-2.6,3.42-2.73,0,.18,0,.36,0,.54l-1.88,1.89c-1.42,.85-1.96,2.15-1.9,3.75-.03,.17-.07,.33-.1,.5-.45,.31-.47,.69-.16,1.11,0,.45,0,.9,0,1.35-.32,.43-.22,.92-.23,1.4,0,.46-.05,.89-.58,1.05-.24-.88-.48-1.76-.71-2.64-.16-.61,.12-1.34-.54-1.8,0-.2,0-.4,0-.61,.24-.3,.26-.61,.06-.94,.02-.15,.05-.31,.07-.46,.02-.19,.05-.39,.07-.58Z"/>
  <path class="cls-3" d="M7.21,1.91c1.99-.4,3.97-.85,5.89-1.53,2.17,.09,4.36-.3,6.53,.19,1.25,.29,2.37,.79,3.09,1.93,.04,1.14,.82,2.45-.74,3.23-1.03-.97-2.02-1.98-3.4-2.51-4.12-1.59-8.25-1.97-12.43-.25,0-.18,0-.36,0-.54,.35-.18,.71-.36,1.06-.53Z"/>
  <path class="cls-6" d="M.04,9.58c.66,.46,.38,1.19,.54,1.8,.23,.88,.48,1.76,.72,2.64,0,.73,.27,1.39,.54,2.05,.72,1.76,1.49,3.51,1.95,5.37-.8,.47-.46,1.28-.6,1.95C.49,19.16-.18,14.47,.04,9.58Z"/>
  <path class="cls-12" d="M.1,8.03c.21,.33,.18,.64-.06,.94,.02-.31,.04-.63,.06-.94Z"/>
  <path class="cls-8" d="M21.15,23.62c.19-.08,.37-.16,.56-.24-.1,.28-.32,.27-.56,.24Z"/>
  <path class="cls-10" d="M.24,7c-.02,.19-.05,.39-.07,.58-.09-.21-.07-.4,.07-.58Z"/>
  <path class="cls-11" d="M6.14,2.98c4.18-1.73,8.31-1.34,12.43,.25,1.38,.53,2.37,1.54,3.4,2.51,1.06,3.11,1.22,6.33,1.05,9.57-.1,1.77-.26,3.54-1.34,5.06-1.02,.87-2.23,1.26-3.55,1.38-1.92,.18-3.71,.92-5.57,1.36-2.63,.61-5.12,.21-7.5-1.03,.24-.33,0-.58-.13-.85-1.24-2.4-2.1-4.91-2.45-7.6-.09-.68,.1-1.43-.38-2.05,0-.45,0-.9,0-1.35,.3-.34,.28-.72,.16-1.11,.03-.17,.07-.33,.1-.5,.63-1.25,1.27-2.5,1.9-3.75l1.88-1.89Zm9.92,10.89c0-1.25,0-2.49,0-3.74,0-.26-.06-.58,.21-.73,.37-.21,.55,.16,.77,.35,.2,.17,.39,.37,.57,.56,.37,.38,.82,.55,1.33,.38,.61-.2,.55-.73,.59-1.22,.28-3.69-3.21-5.36-5.68-5.38-.84,0-1.01,.56-1.01,1.26,0,2.05-.05,4.1,.02,6.15,.04,1.13-.39,1.56-1.47,1.41-1.6-.21-2.96,.3-4.22,1.28-1.32,1.02-1.47,2.42-1.23,3.86,.22,1.33,1.2,2.15,2.44,2.59,.63,.22,1.29,.42,1.94,.47,2.48,.21,6.19-1.22,5.75-4.7-.11-.83-.02-1.69-.01-2.54Z"/>
  <path class="cls-2" d="M2.1,11.57c.48,.61,.29,1.36,.38,2.05,.35,2.69,1.21,5.2,2.45,7.6,.14,.26,.37,.52,.13,.85-.42-.21-.85-.42-1.27-.63-.46-1.86-1.23-3.6-1.95-5.37-.27-.66-.53-1.32-.54-2.05,.53-.16,.57-.59,.58-1.05,0-.47-.1-.97,.23-1.4Z"/>
  <path class="cls-1" d="M7.21,1.91c-.35,.18-.71,.36-1.06,.53-1.76,.13-2.59,1.45-3.42,2.73-.4,.61-.54,1.37-1.06,1.93-.13-.1-.25-.14-.25-.2C1.29,4.52,3.48,1.49,5.71,.97c.78-.18,1.59-.31,1.49,.94Z"/>
  <path class="cls-3" d="M4.26,4.87c-.63,1.25-1.27,2.5-1.9,3.75-.06-1.6,.48-2.9,1.9-3.75Z"/>
  <path class="cls-3" d="M2.26,9.11c.12,.4,.14,.78-.16,1.11-.3-.42-.29-.8,.16-1.11Z"/>
  <path class="cls-7" d="M16.06,13.87c0,.85-.09,1.7,.01,2.54,.44,3.48-3.27,4.9-5.75,4.7-.66-.06-1.32-.25-1.94-.47-1.24-.44-2.23-1.25-2.44-2.59-.23-1.44-.09-2.84,1.23-3.86,1.26-.97,2.62-1.48,4.22-1.28,1.08,.14,1.51-.28,1.47-1.41-.07-2.05-.01-4.1-.02-6.15,0-.7,.16-1.27,1.01-1.26,2.48,.02,5.96,1.69,5.68,5.38-.04,.49,.02,1.02-.59,1.22-.52,.17-.96,0-1.33-.38-.19-.19-.37-.39-.57-.56-.22-.19-.4-.55-.77-.35-.27,.15-.21,.47-.21,.73,0,1.25,0,2.49,0,3.74Zm2.54-3.68c.55-2.87-1.01-4.88-3.91-5.36-.97-.16-1.27,.13-1.25,1.09,.05,2.23-.01,4.46,.03,6.68,.02,.93-.01,1.34-1.21,1.01-1.87-.51-3.64-.06-4.99,1.45-1,1.12-1.07,2.54-.26,3.69,1.02,1.45,3.52,2.09,5.62,1.44,2-.62,2.85-1.78,2.86-3.97,.01-2.32,0-4.64,0-6.95,0-.34-.15-.78,.22-.98,.4-.22,.79,.07,1.09,.31,.59,.46,1.13,.98,1.81,1.57Z"/>
  <path class="cls-1" d="M18.6,10.18c-.67-.59-1.22-1.11-1.81-1.57-.3-.24-.69-.53-1.09-.31-.37,.2-.22,.64-.22,.98-.01,2.32,0,4.64,0,6.95-.01,2.19-.85,3.35-2.86,3.97-2.1,.65-4.59,0-5.62-1.44-.81-1.15-.73-2.57,.26-3.69,1.35-1.51,3.12-1.96,4.99-1.45,1.2,.32,1.23-.09,1.21-1.01-.04-2.23,.02-4.46-.03-6.68-.02-.96,.28-1.25,1.25-1.09,2.9,.48,4.46,2.49,3.91,5.36Z"/>
</svg>